# xmcd
#
# Track frame offsets:
#	151
#	16014
#	29828
#	42749
#	59498
#	76134
#	89363
#	100014
#	114683
#	121417
#	135701
#	151536
#
# Disc length: 2216 seconds
#
# Revision: 0
# Processed by: cddbd v1.5.2PL0 Copyright (c) Steve Scherf et al.
# Submitted via: EZCDAudioConverter 1.3.4.1
#
DISCID=9608a60c
DTITLE=Marcos Valle - Previsão Do Tempo
DYEAR=1900
DGENRE=
TTITLE0=Flamengo Até Morrer
TTITLE1=Nem Paletó, Nem Gravata
TTITLE2=Tira A Mão
TTITLE3=Mentira
TTITLE4=Previsão Do Tempo [Instrumental]
TTITLE5=Mais Do Que Valsa
TTITLE6=Os Ossos Do Barão
TTITLE7=Não Tem Nada Não
TTITLE8=Não Tem Nada Não [Instrumental]
TTITLE9=Samba Fatal
TTITLE10=Tiu-Ba-La-Quieba
TTITLE11=De Repente, Moça Flor
EXTD=
EXTT0=
EXTT1=
EXTT2=
EXTT3=
EXTT4=
EXTT5=
EXTT6=
EXTT7=
EXTT8=
EXTT9=
EXTT10=
EXTT11=
PLAYORDER=
